<mxfile host="app.diagrams.net" modified="2022-01-18T08:19:30.399Z" agent="5.0 (Windows NT 10.0; Win64; x64) AppleWebKit/537.36 (KHTML, like Gecko) Chrome/97.0.4692.71 Safari/537.36" etag="CyGq9mtmWCik9NXWBu2k" version="15.8.2" type="github">
  <diagram id="C5RBs43oDa-KdzZeNtuy" name="Page-1">
    <mxGraphModel dx="782" dy="479" grid="1" gridSize="10" guides="1" tooltips="1" connect="1" arrows="1" fold="1" page="1" pageScale="1" pageWidth="827" pageHeight="1169" math="0" shadow="0">
      <root>
        <mxCell id="WIyWlLk6GJQsqaUBKTNV-0" />
        <mxCell id="WIyWlLk6GJQsqaUBKTNV-1" parent="WIyWlLk6GJQsqaUBKTNV-0" />
        <mxCell id="UJbnFNmi1gZ3_2ONGhAq-0" style="edgeStyle=orthogonalEdgeStyle;rounded=0;orthogonalLoop=1;jettySize=auto;html=1;entryX=0.5;entryY=0;entryDx=0;entryDy=0;" edge="1" parent="WIyWlLk6GJQsqaUBKTNV-1" target="WIyWlLk6GJQsqaUBKTNV-7">
          <mxGeometry relative="1" as="geometry">
            <mxPoint x="380" y="130" as="sourcePoint" />
            <Array as="points">
              <mxPoint x="380" y="130" />
              <mxPoint x="380" y="130" />
            </Array>
          </mxGeometry>
        </mxCell>
        <mxCell id="WIyWlLk6GJQsqaUBKTNV-3" value="Start" style="ellipse;whiteSpace=wrap;html=1;shadow=0;fontFamily=Helvetica;fontSize=12;fontColor=rgba(0, 0, 0, 1);align=center;strokeColor=rgba(0, 0, 0, 1);strokeWidth=1;fillColor=rgba(255, 255, 255, 1);" parent="WIyWlLk6GJQsqaUBKTNV-1" vertex="1">
          <mxGeometry x="320" y="90" width="120" height="40" as="geometry" />
        </mxCell>
        <mxCell id="WIyWlLk6GJQsqaUBKTNV-7" value="Input Values" style="rounded=1;whiteSpace=wrap;html=1;fontSize=12;glass=0;strokeWidth=1;shadow=0;" parent="WIyWlLk6GJQsqaUBKTNV-1" vertex="1">
          <mxGeometry x="320" y="150" width="120" height="40" as="geometry" />
        </mxCell>
        <mxCell id="UJbnFNmi1gZ3_2ONGhAq-24" style="edgeStyle=orthogonalEdgeStyle;rounded=0;orthogonalLoop=1;jettySize=auto;html=1;entryX=0.5;entryY=0;entryDx=0;entryDy=0;" edge="1" parent="WIyWlLk6GJQsqaUBKTNV-1" source="WIyWlLk6GJQsqaUBKTNV-12" target="UJbnFNmi1gZ3_2ONGhAq-20">
          <mxGeometry relative="1" as="geometry" />
        </mxCell>
        <mxCell id="WIyWlLk6GJQsqaUBKTNV-12" value="find gap values" style="rounded=1;whiteSpace=wrap;html=1;fontSize=12;glass=0;strokeWidth=1;shadow=0;" parent="WIyWlLk6GJQsqaUBKTNV-1" vertex="1">
          <mxGeometry x="320" y="220" width="120" height="40" as="geometry" />
        </mxCell>
        <mxCell id="UJbnFNmi1gZ3_2ONGhAq-4" value="&lt;b&gt;no&lt;/b&gt;" style="text;html=1;resizable=0;autosize=1;align=center;verticalAlign=middle;points=[];fillColor=none;strokeColor=none;rounded=0;" vertex="1" parent="WIyWlLk6GJQsqaUBKTNV-1">
          <mxGeometry x="510" y="380" width="30" height="20" as="geometry" />
        </mxCell>
        <mxCell id="UJbnFNmi1gZ3_2ONGhAq-5" style="edgeStyle=orthogonalEdgeStyle;rounded=0;orthogonalLoop=1;jettySize=auto;html=1;" edge="1" parent="WIyWlLk6GJQsqaUBKTNV-1">
          <mxGeometry relative="1" as="geometry">
            <mxPoint x="379.5" y="190" as="sourcePoint" />
            <mxPoint x="380" y="220" as="targetPoint" />
          </mxGeometry>
        </mxCell>
        <mxCell id="UJbnFNmi1gZ3_2ONGhAq-6" style="edgeStyle=orthogonalEdgeStyle;rounded=0;orthogonalLoop=1;jettySize=auto;html=1;entryX=0.5;entryY=0;entryDx=0;entryDy=0;" edge="1" parent="WIyWlLk6GJQsqaUBKTNV-1">
          <mxGeometry relative="1" as="geometry">
            <mxPoint x="379.5" y="260" as="sourcePoint" />
            <mxPoint x="379.5" y="280" as="targetPoint" />
            <Array as="points">
              <mxPoint x="379.5" y="260" />
              <mxPoint x="379.5" y="260" />
            </Array>
          </mxGeometry>
        </mxCell>
        <mxCell id="UJbnFNmi1gZ3_2ONGhAq-19" style="edgeStyle=orthogonalEdgeStyle;rounded=0;orthogonalLoop=1;jettySize=auto;html=1;entryX=0;entryY=0.5;entryDx=0;entryDy=0;" edge="1" parent="WIyWlLk6GJQsqaUBKTNV-1" source="UJbnFNmi1gZ3_2ONGhAq-7" target="UJbnFNmi1gZ3_2ONGhAq-8">
          <mxGeometry relative="1" as="geometry" />
        </mxCell>
        <mxCell id="UJbnFNmi1gZ3_2ONGhAq-7" value="While gap&amp;gt;0" style="rhombus;whiteSpace=wrap;html=1;" vertex="1" parent="WIyWlLk6GJQsqaUBKTNV-1">
          <mxGeometry x="340" y="280" width="80" height="90" as="geometry" />
        </mxCell>
        <mxCell id="UJbnFNmi1gZ3_2ONGhAq-10" style="edgeStyle=orthogonalEdgeStyle;rounded=0;orthogonalLoop=1;jettySize=auto;html=1;entryX=0.429;entryY=0;entryDx=0;entryDy=0;entryPerimeter=0;" edge="1" parent="WIyWlLk6GJQsqaUBKTNV-1" source="UJbnFNmi1gZ3_2ONGhAq-8" target="UJbnFNmi1gZ3_2ONGhAq-9">
          <mxGeometry relative="1" as="geometry">
            <mxPoint x="670" y="320" as="targetPoint" />
          </mxGeometry>
        </mxCell>
        <mxCell id="UJbnFNmi1gZ3_2ONGhAq-14" value="" style="edgeStyle=orthogonalEdgeStyle;rounded=0;orthogonalLoop=1;jettySize=auto;html=1;" edge="1" parent="WIyWlLk6GJQsqaUBKTNV-1" source="UJbnFNmi1gZ3_2ONGhAq-8">
          <mxGeometry relative="1" as="geometry">
            <mxPoint x="550" y="460" as="targetPoint" />
          </mxGeometry>
        </mxCell>
        <mxCell id="UJbnFNmi1gZ3_2ONGhAq-8" value="Left value &amp;gt; right value" style="rhombus;whiteSpace=wrap;html=1;" vertex="1" parent="WIyWlLk6GJQsqaUBKTNV-1">
          <mxGeometry x="510" y="285" width="80" height="80" as="geometry" />
        </mxCell>
        <mxCell id="UJbnFNmi1gZ3_2ONGhAq-13" value="" style="edgeStyle=orthogonalEdgeStyle;rounded=0;orthogonalLoop=1;jettySize=auto;html=1;" edge="1" parent="WIyWlLk6GJQsqaUBKTNV-1" source="UJbnFNmi1gZ3_2ONGhAq-9" target="UJbnFNmi1gZ3_2ONGhAq-12">
          <mxGeometry relative="1" as="geometry" />
        </mxCell>
        <mxCell id="UJbnFNmi1gZ3_2ONGhAq-9" value="Swap Values" style="rounded=0;whiteSpace=wrap;html=1;" vertex="1" parent="WIyWlLk6GJQsqaUBKTNV-1">
          <mxGeometry x="600" y="440" width="140" height="40" as="geometry" />
        </mxCell>
        <mxCell id="UJbnFNmi1gZ3_2ONGhAq-11" value="&lt;b&gt;yes&lt;/b&gt;" style="text;html=1;resizable=0;autosize=1;align=center;verticalAlign=middle;points=[];fillColor=none;strokeColor=none;rounded=0;" vertex="1" parent="WIyWlLk6GJQsqaUBKTNV-1">
          <mxGeometry x="625" y="300" width="40" height="20" as="geometry" />
        </mxCell>
        <mxCell id="UJbnFNmi1gZ3_2ONGhAq-17" style="edgeStyle=orthogonalEdgeStyle;rounded=0;orthogonalLoop=1;jettySize=auto;html=1;" edge="1" parent="WIyWlLk6GJQsqaUBKTNV-1" source="UJbnFNmi1gZ3_2ONGhAq-12">
          <mxGeometry relative="1" as="geometry">
            <mxPoint x="380" y="370" as="targetPoint" />
          </mxGeometry>
        </mxCell>
        <mxCell id="UJbnFNmi1gZ3_2ONGhAq-12" value="gap = gap/2" style="rounded=0;whiteSpace=wrap;html=1;" vertex="1" parent="WIyWlLk6GJQsqaUBKTNV-1">
          <mxGeometry x="420" y="440" width="100" height="40" as="geometry" />
        </mxCell>
        <mxCell id="UJbnFNmi1gZ3_2ONGhAq-16" value="&lt;b&gt;yes&lt;/b&gt;" style="text;html=1;resizable=0;autosize=1;align=center;verticalAlign=middle;points=[];fillColor=none;strokeColor=none;rounded=0;" vertex="1" parent="WIyWlLk6GJQsqaUBKTNV-1">
          <mxGeometry x="450" y="280" width="40" height="20" as="geometry" />
        </mxCell>
        <mxCell id="UJbnFNmi1gZ3_2ONGhAq-26" value="" style="edgeStyle=orthogonalEdgeStyle;rounded=0;orthogonalLoop=1;jettySize=auto;html=1;" edge="1" parent="WIyWlLk6GJQsqaUBKTNV-1" source="UJbnFNmi1gZ3_2ONGhAq-20" target="UJbnFNmi1gZ3_2ONGhAq-22">
          <mxGeometry relative="1" as="geometry" />
        </mxCell>
        <mxCell id="UJbnFNmi1gZ3_2ONGhAq-20" value="output" style="rounded=0;whiteSpace=wrap;html=1;" vertex="1" parent="WIyWlLk6GJQsqaUBKTNV-1">
          <mxGeometry x="210" y="440" width="100" height="40" as="geometry" />
        </mxCell>
        <mxCell id="UJbnFNmi1gZ3_2ONGhAq-22" value="End" style="ellipse;whiteSpace=wrap;html=1;" vertex="1" parent="WIyWlLk6GJQsqaUBKTNV-1">
          <mxGeometry x="225" y="510" width="70" height="60" as="geometry" />
        </mxCell>
        <mxCell id="UJbnFNmi1gZ3_2ONGhAq-25" style="edgeStyle=orthogonalEdgeStyle;rounded=0;orthogonalLoop=1;jettySize=auto;html=1;exitX=0.5;exitY=1;exitDx=0;exitDy=0;" edge="1" parent="WIyWlLk6GJQsqaUBKTNV-1" source="UJbnFNmi1gZ3_2ONGhAq-20" target="UJbnFNmi1gZ3_2ONGhAq-20">
          <mxGeometry relative="1" as="geometry" />
        </mxCell>
      </root>
    </mxGraphModel>
  </diagram>
</mxfile>
